<svg xmlns="http://www.w3.org/2000/svg" version="1.1" preserveAspectRatio="none" viewBox="41.5 209.26 417 81.48">
    <svg xmlns="http://www.w3.org/2000/svg" xmlns:xlink="http://www.w3.org/1999/xlink" viewBox="153.2341 146.5273 460.6043 90" width="417" height="81.47991670941846" x="41.5px" y="209.26px" preserveAspectRatio="none">
        <defs/>
        <style>
            .aIptOCySncolors-3c88724c7-627c-4b1d-9221-100a278afa08 {
                fill: #C9CCF1;
                fill-opacity: 1;
            }

            .aIptOCySncolors-4c88724c7-627c-4b1d-9221-100a278afa08 {
                fill: #000000;
                fill-opacity: 1;
            }

            .aIptOCySncolors-5c88724c7-627c-4b1d-9221-100a278afa08 {
                fill: #050C84;
                fill-opacity: 1;
            }

            .aIptOCySncolors-6c88724c7-627c-4b1d-9221-100a278afa08 {
                fill: #414DBA;
                fill-opacity: 1;
            }

            .aIptOCySncolors-7c88724c7-627c-4b1d-9221-100a278afa08 {
                fill: #F1F1F1;
                fill-opacity: 1;
            }

            .companyNamec88724c7-627c-4b1d-9221-100a278afa08 {
                fill: #2733A0;
                fill-opacity: 1;
            }

            .icon1c88724c7-627c-4b1d-9221-100a278afa08 {
                fill: #0B1AAE;
                fill-opacity: 1;
            }

            .icon2c88724c7-627c-4b1d-9221-100a278afa08 {
                fill: #3342D2;
                fill-opacity: 1;
            }

            .icon3-strc88724c7-627c-4b1d-9221-100a278afa08 {
                stroke: #5964B8;
                stroke-opacity: 1;
            }

            .icon3c88724c7-627c-4b1d-9221-100a278afa08 {
                fill: #5964B8;
                fill-opacity: 1;
            }

            .shapeStroke-strc88724c7-627c-4b1d-9221-100a278afa08 {
                stroke: #F1F1F1;
                stroke-opacity: 1;
            }
        </style>
        <g opacity="1" transform="rotate(0 153.2341 161.5273)">
            <svg width="59.7198" height="60" x="153.2341" y="161.5273" version="1.1" preserveAspectRatio="none" viewBox="4.60699987411499 4.996998310089111 39.8120002746582 39.99884033203125">
                <g transform="matrix(1 0 0 1 0 0)" class="icon1c88724c7-627c-4b1d-9221-100a278afa08">
                    <symbol viewBox="-31.583 -7.116 63.167 14.232">
                        <path d="M21.056,7.116H10.527H0h-10.528h-10.527h-10.528V-7.116h10.528h10.527H0h10.527h10.528h10.527V7.116H21.056z M29.255,6.377   c0,0.114,0.086,0.206,0.191,0.206h1.548c0.105,0,0.191-0.092,0.191-0.206V5.583c0-0.114-0.086-0.207-0.191-0.207h-1.548   c-0.105,0-0.191,0.093-0.191,0.207V6.377z M26.635,6.377c0,0.114,0.085,0.206,0.191,0.206h1.548c0.105,0,0.191-0.092,0.191-0.206   V5.583c0-0.114-0.086-0.207-0.191-0.207h-1.548c-0.106,0-0.191,0.093-0.191,0.207V6.377z M24.015,6.377   c0,0.114,0.086,0.206,0.191,0.206h1.548c0.106,0,0.191-0.092,0.191-0.206V5.583c0-0.114-0.085-0.207-0.191-0.207h-1.548   c-0.105,0-0.191,0.093-0.191,0.207V6.377z M21.395,6.377c0,0.114,0.086,0.206,0.192,0.206h1.547c0.106,0,0.192-0.092,0.192-0.206   V5.583c0-0.114-0.086-0.207-0.192-0.207h-1.547c-0.106,0-0.192,0.093-0.192,0.207V6.377z M18.727,6.377   c0,0.114,0.086,0.206,0.191,0.206h1.548c0.106,0,0.192-0.092,0.192-0.206V5.583c0-0.114-0.086-0.207-0.192-0.207h-1.548   c-0.105,0-0.191,0.093-0.191,0.207V6.377z M16.106,6.377c0,0.114,0.086,0.206,0.192,0.206h1.547c0.106,0,0.192-0.092,0.192-0.206   V5.583c0-0.114-0.086-0.207-0.192-0.207h-1.547c-0.106,0-0.192,0.093-0.192,0.207V6.377z M13.487,6.377   c0,0.114,0.086,0.206,0.191,0.206h1.548c0.105,0,0.191-0.092,0.191-0.206V5.583c0-0.114-0.086-0.207-0.191-0.207h-1.548   c-0.105,0-0.191,0.093-0.191,0.207V6.377z M10.867,6.377c0,0.114,0.085,0.206,0.191,0.206h1.548c0.105,0,0.191-0.092,0.191-0.206   V5.583c0-0.114-0.086-0.207-0.191-0.207h-1.548c-0.106,0-0.191,0.093-0.191,0.207V6.377z M8.199,6.377   c0,0.114,0.086,0.206,0.191,0.206h1.548c0.105,0,0.191-0.092,0.191-0.206V5.583c0-0.114-0.086-0.207-0.191-0.207H8.391   c-0.105,0-0.191,0.093-0.191,0.207V6.377z M5.579,6.377c0,0.114,0.086,0.206,0.191,0.206h1.548c0.105,0,0.191-0.092,0.191-0.206   V5.583c0-0.114-0.086-0.207-0.191-0.207H5.771c-0.105,0-0.191,0.093-0.191,0.207V6.377z M2.959,6.377   c0,0.114,0.086,0.206,0.191,0.206h1.548c0.106,0,0.191-0.092,0.191-0.206V5.583c0-0.114-0.085-0.207-0.191-0.207H3.15   c-0.105,0-0.191,0.093-0.191,0.207V6.377z M0.34,6.377c0,0.114,0.085,0.206,0.191,0.206h1.547c0.106,0,0.192-0.092,0.192-0.206   V5.583c0-0.114-0.086-0.207-0.192-0.207H0.531c-0.106,0-0.191,0.093-0.191,0.207V6.377z M-2.329,6.377   c0,0.114,0.086,0.206,0.191,0.206h1.548c0.106,0,0.192-0.092,0.192-0.206V5.583c0-0.114-0.086-0.207-0.192-0.207h-1.548   c-0.105,0-0.191,0.093-0.191,0.207V6.377z M-4.948,6.377c0,0.114,0.085,0.206,0.191,0.206h1.548c0.105,0,0.191-0.092,0.191-0.206   V5.583c0-0.114-0.086-0.207-0.191-0.207h-1.548c-0.106,0-0.191,0.093-0.191,0.207V6.377z M-7.568,6.377   c0,0.114,0.086,0.206,0.191,0.206h1.548c0.105,0,0.191-0.092,0.191-0.206V5.583c0-0.114-0.086-0.207-0.191-0.207h-1.548   c-0.105,0-0.191,0.093-0.191,0.207V6.377z M-10.188,6.377c0,0.114,0.086,0.206,0.192,0.206h1.547c0.106,0,0.192-0.092,0.192-0.206   V5.583c0-0.114-0.086-0.207-0.192-0.207h-1.547c-0.106,0-0.192,0.093-0.192,0.207V6.377z M-12.856,6.377   c0,0.114,0.086,0.206,0.191,0.206h1.548c0.105,0,0.191-0.092,0.191-0.206V5.583c0-0.114-0.086-0.207-0.191-0.207h-1.548   c-0.105,0-0.191,0.093-0.191,0.207V6.377z M-15.477,6.377c0,0.114,0.086,0.206,0.191,0.206h1.548c0.106,0,0.192-0.092,0.192-0.206   V5.583c0-0.114-0.086-0.207-0.192-0.207h-1.548c-0.105,0-0.191,0.093-0.191,0.207V6.377z M-18.096,6.377   c0,0.114,0.086,0.206,0.191,0.206h1.547c0.106,0,0.191-0.092,0.191-0.206V5.583c0-0.114-0.085-0.207-0.191-0.207h-1.547   c-0.105,0-0.191,0.093-0.191,0.207V6.377z M-20.717,6.377c0,0.114,0.086,0.206,0.192,0.206h1.548c0.105,0,0.191-0.092,0.191-0.206   V5.583c0-0.114-0.086-0.207-0.191-0.207h-1.548c-0.106,0-0.192,0.093-0.192,0.207V6.377z M-23.385,6.377   c0,0.114,0.086,0.206,0.191,0.206h1.549c0.105,0,0.191-0.092,0.191-0.206V5.583c0-0.114-0.086-0.207-0.191-0.207h-1.549   c-0.105,0-0.191,0.093-0.191,0.207V6.377z M-26.004,6.377c0,0.114,0.086,0.206,0.191,0.206h1.547c0.106,0,0.192-0.092,0.192-0.206   V5.583c0-0.114-0.086-0.207-0.192-0.207h-1.547c-0.105,0-0.191,0.093-0.191,0.207V6.377z M-28.624,6.377   c0,0.114,0.086,0.206,0.191,0.206h1.548c0.105,0,0.191-0.092,0.191-0.206V5.583c0-0.114-0.086-0.207-0.191-0.207h-1.548   c-0.105,0-0.191,0.093-0.191,0.207V6.377z M-31.244,6.377c0,0.114,0.086,0.206,0.192,0.206h1.547c0.106,0,0.192-0.092,0.192-0.206   V5.583c0-0.114-0.086-0.207-0.192-0.207h-1.547c-0.106,0-0.192,0.093-0.192,0.207V6.377z M-29.313-6.375   c0-0.114-0.086-0.206-0.192-0.206h-1.547c-0.106,0-0.192,0.092-0.192,0.206v0.795c0,0.114,0.086,0.207,0.192,0.207h1.547   c0.106,0,0.192-0.093,0.192-0.207V-6.375z M-26.693-6.375c0-0.114-0.086-0.206-0.191-0.206h-1.548   c-0.105,0-0.191,0.092-0.191,0.206v0.795c0,0.114,0.086,0.207,0.191,0.207h1.548c0.105,0,0.191-0.093,0.191-0.207V-6.375z    M-24.073-6.375c0-0.114-0.086-0.206-0.192-0.206h-1.547c-0.105,0-0.191,0.092-0.191,0.206v0.795c0,0.114,0.086,0.207,0.191,0.207   h1.547c0.106,0,0.192-0.093,0.192-0.207V-6.375z M-21.453-6.375c0-0.114-0.086-0.206-0.191-0.206h-1.549   c-0.105,0-0.191,0.092-0.191,0.206v0.795c0,0.114,0.086,0.207,0.191,0.207h1.549c0.105,0,0.191-0.093,0.191-0.207V-6.375z    M-31.244-4.646v9.457h9.791v-9.457H-31.244z M-18.785-6.375c0-0.114-0.086-0.206-0.191-0.206h-1.548   c-0.106,0-0.192,0.092-0.192,0.206v0.795c0,0.114,0.086,0.207,0.192,0.207h1.548c0.105,0,0.191-0.093,0.191-0.207V-6.375z    M-16.166-6.375c0-0.114-0.085-0.206-0.191-0.206h-1.547c-0.105,0-0.191,0.092-0.191,0.206v0.795c0,0.114,0.086,0.207,0.191,0.207   h1.547c0.106,0,0.191-0.093,0.191-0.207V-6.375z M-13.545-6.375c0-0.114-0.086-0.206-0.192-0.206h-1.548   c-0.105,0-0.191,0.092-0.191,0.206v0.795c0,0.114,0.086,0.207,0.191,0.207h1.548c0.106,0,0.192-0.093,0.192-0.207V-6.375z    M-10.926-6.375c0-0.114-0.086-0.206-0.191-0.206h-1.548c-0.105,0-0.191,0.092-0.191,0.206v0.795c0,0.114,0.086,0.207,0.191,0.207   h1.548c0.105,0,0.191-0.093,0.191-0.207V-6.375z M-20.717-4.646v9.457h9.791v-9.457H-20.717z M-8.257-6.375   c0-0.114-0.086-0.206-0.192-0.206h-1.547c-0.106,0-0.192,0.092-0.192,0.206v0.795c0,0.114,0.086,0.207,0.192,0.207h1.547   c0.106,0,0.192-0.093,0.192-0.207V-6.375z M-5.638-6.375c0-0.114-0.086-0.206-0.191-0.206h-1.548c-0.105,0-0.191,0.092-0.191,0.206   v0.795c0,0.114,0.086,0.207,0.191,0.207h1.548c0.105,0,0.191-0.093,0.191-0.207V-6.375z M-3.018-6.375   c0-0.114-0.086-0.206-0.191-0.206h-1.548c-0.106,0-0.191,0.092-0.191,0.206v0.795c0,0.114,0.085,0.207,0.191,0.207h1.548   c0.105,0,0.191-0.093,0.191-0.207V-6.375z M-0.397-6.375c0-0.114-0.086-0.206-0.192-0.206h-1.548c-0.105,0-0.191,0.092-0.191,0.206   v0.795c0,0.114,0.086,0.207,0.191,0.207h1.548c0.106,0,0.192-0.093,0.192-0.207V-6.375z M-10.188-4.646v9.457h9.791v-9.457H-10.188   z M2.271-6.375c0-0.114-0.086-0.206-0.192-0.206H0.531c-0.106,0-0.191,0.092-0.191,0.206v0.795c0,0.114,0.085,0.207,0.191,0.207   h1.547c0.106,0,0.192-0.093,0.192-0.207V-6.375z M4.89-6.375c0-0.114-0.085-0.206-0.191-0.206H3.15   c-0.105,0-0.191,0.092-0.191,0.206v0.795c0,0.114,0.086,0.207,0.191,0.207h1.548c0.106,0,0.191-0.093,0.191-0.207V-6.375z    M7.51-6.375c0-0.114-0.086-0.206-0.191-0.206H5.771c-0.105,0-0.191,0.092-0.191,0.206v0.795c0,0.114,0.086,0.207,0.191,0.207   h1.548c0.105,0,0.191-0.093,0.191-0.207V-6.375z M10.13-6.375c0-0.114-0.086-0.206-0.191-0.206H8.391   c-0.105,0-0.191,0.092-0.191,0.206v0.795c0,0.114,0.086,0.207,0.191,0.207h1.548c0.105,0,0.191-0.093,0.191-0.207V-6.375z    M0.34-4.646v9.457h9.79v-9.457H0.34z M12.798-6.375c0-0.114-0.086-0.206-0.191-0.206h-1.548c-0.106,0-0.191,0.092-0.191,0.206   v0.795c0,0.114,0.085,0.207,0.191,0.207h1.548c0.105,0,0.191-0.093,0.191-0.207V-6.375z M15.418-6.375   c0-0.114-0.086-0.206-0.191-0.206h-1.548c-0.105,0-0.191,0.092-0.191,0.206v0.795c0,0.114,0.086,0.207,0.191,0.207h1.548   c0.105,0,0.191-0.093,0.191-0.207V-6.375z M18.038-6.375c0-0.114-0.086-0.206-0.192-0.206h-1.547c-0.106,0-0.192,0.092-0.192,0.206   v0.795c0,0.114,0.086,0.207,0.192,0.207h1.547c0.106,0,0.192-0.093,0.192-0.207V-6.375z M20.658-6.375   c0-0.114-0.086-0.206-0.192-0.206h-1.548c-0.105,0-0.191,0.092-0.191,0.206v0.795c0,0.114,0.086,0.207,0.191,0.207h1.548   c0.106,0,0.192-0.093,0.192-0.207V-6.375z M10.867-4.646v9.457h9.791v-9.457H10.867z M23.326-6.375   c0-0.114-0.086-0.206-0.192-0.206h-1.547c-0.106,0-0.192,0.092-0.192,0.206v0.795c0,0.114,0.086,0.207,0.192,0.207h1.547   c0.106,0,0.192-0.093,0.192-0.207V-6.375z M25.945-6.375c0-0.114-0.085-0.206-0.191-0.206h-1.548c-0.105,0-0.191,0.092-0.191,0.206   v0.795c0,0.114,0.086,0.207,0.191,0.207h1.548c0.106,0,0.191-0.093,0.191-0.207V-6.375z M28.565-6.375   c0-0.114-0.086-0.206-0.191-0.206h-1.548c-0.106,0-0.191,0.092-0.191,0.206v0.795c0,0.114,0.085,0.207,0.191,0.207h1.548   c0.105,0,0.191-0.093,0.191-0.207V-6.375z M31.186-6.375c0-0.114-0.086-0.206-0.191-0.206h-1.548c-0.105,0-0.191,0.092-0.191,0.206   v0.795c0,0.114,0.086,0.207,0.191,0.207h1.548c0.105,0,0.191-0.093,0.191-0.207V-6.375z M31.186-4.646h-9.791v9.457h9.791V-4.646z"/>
                    </symbol>
                    <g>
                        <path d="M44.402,27.255l-0.039,0.26c-0.022,0.193-0.048,0.387-0.077,0.579l-0.005,0.039l0.138-1.006L44.402,27.255z"/>
                        <path d="M4.872,21.782c0.054-0.317,0.124-0.704,0.218-1.21C5.012,20.934,4.939,21.361,4.872,21.782z"/>
                        <path d="M7.043,15.369c-0.038,0.076-0.082,0.176-0.122,0.258c0.024-0.043,0.046-0.089,0.07-0.133   C7.01,15.459,7.031,15.395,7.043,15.369z"/>
                        <path d="M4.753,22.501c-0.001,0.007-0.001,0.015-0.002,0.023c0.006-0.044,0.014-0.093,0.021-0.14   C4.767,22.42,4.759,22.465,4.753,22.501z"/>
                        <path d="M7.583,14.442c-0.089,0.141-0.172,0.282-0.257,0.425l0.375-0.618L7.583,14.442z"/>
                        <path d="M4.773,22.384c0.03-0.188,0.063-0.394,0.099-0.602C4.829,22.016,4.799,22.207,4.773,22.384z"/>
                        <path d="M5.089,20.572c0.121-0.449,0.27-0.979,0.425-1.498C5.357,19.592,5.204,20.122,5.089,20.572z"/>
                        <path d="M5.515,19.074c0.121-0.397,0.244-0.79,0.356-1.129C5.755,18.284,5.633,18.677,5.515,19.074z"/>
                        <path d="M40.247,37.307l0.117-0.149l-0.361,0.453C40.085,37.512,40.167,37.407,40.247,37.307z"/>
                        <polygon points="40.364,37.157 40.43,37.075 40.423,37.079  "/>
                        <path d="M5.871,17.945c0.294-0.704,0.693-1.592,1.051-2.319C6.6,16.231,6.319,16.851,5.871,17.945z"/>
                        <path d="M27.428,28.061C15.656,24.684,5.981,17.692,7.898,13.945c-0.391,0.648-0.663,1.104-0.906,1.548   c-0.103,0.213-0.243,0.548-0.218,1.126c-0.427,0.763-0.797,1.562-1.108,2.396c-0.477,1.275-0.786,2.564-0.939,3.851   c0.004-0.115,0.014-0.229,0.025-0.343c-0.066,0.471-0.09,0.832-0.125,1.505l0.036-0.538v0.006   c-0.016,0.181-0.027,0.364-0.036,0.545v-0.014L4.607,24.59v0.162c0.606,10.66,27.557,21.219,34.744,13.612   c0.423-0.449,0.928-1.099,1.301-1.589c0.03-0.045,0.058-0.084,0.087-0.127c-0.368,0.47-1.294,1.498-3.558,2.111   c0.827-1.182,1.534-2.53,2.097-4.028c0.396-1.071,0.703-2.171,0.921-3.296c3.463-0.678,3.851-2.226,3.995-2.813   c0.008-0.044,0.017-0.076,0.023-0.12l0.188-1.48C43.271,30.108,36.288,30.535,27.428,28.061z M34.909,30.209l0.275-0.158   c0.528,0.037,1.234,0.081,1.766,0.1l0.19,0.169c-0.041,0.24-0.085,0.48-0.133,0.721l-0.255,0.177   c-0.539-0.013-1.259-0.036-1.796-0.067l-0.198-0.219C34.812,30.69,34.861,30.448,34.909,30.209z M31.564,29.741l0.31-0.128   c0.594,0.096,1.39,0.224,1.986,0.301l0.214,0.199c-0.049,0.24-0.104,0.482-0.16,0.722l-0.299,0.179   c-0.606-0.087-1.412-0.205-2.016-0.305l-0.219-0.245C31.444,30.224,31.506,29.981,31.564,29.741z M27.898,28.9l0.297-0.104   c0.753,0.194,1.491,0.367,2.213,0.517l0.223,0.254c-0.063,0.243-0.127,0.483-0.192,0.72l-0.324,0.117   c-0.733-0.15-1.482-0.327-2.248-0.527l-0.195-0.237C27.746,29.395,27.823,29.149,27.898,28.9z M24.029,27.718l0.352-0.095   c0.725,0.256,1.458,0.496,2.2,0.719l0.236,0.257c-0.079,0.247-0.159,0.492-0.238,0.737l-0.35,0.082   c-0.754-0.227-1.499-0.47-2.232-0.731l-0.223-0.269C23.859,28.185,23.945,27.95,24.029,27.718z M20.44,26.317l0.306-0.089   c0.634,0.263,1.481,0.612,2.121,0.858l0.211,0.273c-0.091,0.231-0.177,0.466-0.266,0.699l-0.354,0.086   c-0.647-0.258-1.51-0.601-2.151-0.874l-0.159-0.268C20.245,26.775,20.342,26.545,20.44,26.317z M17.125,24.736l0.293-0.075   c0.583,0.291,1.365,0.677,1.955,0.953l0.145,0.269c-0.1,0.228-0.2,0.455-0.299,0.683l-0.304,0.082   c-0.593-0.292-1.383-0.686-1.969-0.994l-0.129-0.275C16.918,25.164,17.021,24.949,17.125,24.736z M14.133,23.002l0.291-0.012   c0.519,0.309,1.214,0.718,1.743,1.014l0.114,0.277c-0.106,0.212-0.211,0.424-0.315,0.638l-0.289,0.068   c-0.527-0.312-1.23-0.729-1.749-1.055l-0.127-0.301C13.91,23.422,14.019,23.212,14.133,23.002z M11.571,21.221l0.234-0.025   c0.44,0.319,1.029,0.742,1.478,1.047l0.107,0.299c-0.109,0.198-0.218,0.397-0.325,0.598l-0.291,0.036   c-0.447-0.321-1.044-0.75-1.48-1.086l-0.06-0.281C11.344,21.612,11.456,21.417,11.571,21.221z M9.542,19.423h0.217   c0.345,0.318,0.809,0.739,1.167,1.042l0.041,0.279c-0.116,0.194-0.229,0.388-0.341,0.583l-0.218,0.024   c-0.354-0.318-0.824-0.745-1.162-1.079l-0.052-0.276C9.308,19.804,9.424,19.613,9.542,19.423z M8.295,17.709   c0.23,0.301,0.541,0.7,0.791,0.985l0.029,0.271c-0.118,0.188-0.235,0.377-0.349,0.569H8.57c-0.237-0.307-0.55-0.719-0.764-1.042   v-0.269c0.104-0.173,0.212-0.344,0.32-0.514H8.295z M7.884,17.026l-0.022,0.262c-0.109,0.169-0.216,0.339-0.32,0.512l-0.143,0.004   c-0.116-0.286-0.268-0.669-0.349-0.968l0.058-0.259c0.098-0.162,0.198-0.323,0.3-0.482l0.109-0.005   C7.616,16.375,7.755,16.753,7.884,17.026z M7.076,15.382l0.102-0.21c0.086-0.146,0.173-0.288,0.261-0.43l0.048-0.03   c-0.039,0.225-0.082,0.529-0.077,0.757l-0.082,0.229C7.232,15.848,7.137,16,7.043,16.154L6.963,16.19   C6.983,15.946,7.015,15.62,7.076,15.382z M4.971,26.131l-0.059-0.008c-0.091-0.364-0.209-0.849-0.264-1.219L4.64,24.609   c0.009-0.182,0.019-0.362,0.032-0.543h0.027c0.066,0.373,0.159,0.868,0.259,1.232l0.04,0.301   C4.987,25.776,4.975,25.954,4.971,26.131z M6.033,28.267l-0.108-0.015c-0.211-0.373-0.491-0.872-0.677-1.262L5.18,26.691   c0.009-0.184,0.018-0.367,0.032-0.552l0.082,0.013c0.198,0.372,0.463,0.867,0.684,1.228l0.091,0.326   C6.054,27.893,6.043,28.08,6.033,28.267z M7.73,30.354l-0.137,0.02c-0.324-0.372-0.753-0.872-1.06-1.262l-0.114-0.298   c0.01-0.183,0.021-0.369,0.037-0.558l0.134-0.004c0.315,0.383,0.74,0.892,1.073,1.259l0.116,0.276   C7.759,29.977,7.744,30.163,7.73,30.354z M9.996,32.425l-0.2-0.027c-0.42-0.351-0.975-0.821-1.381-1.189l-0.127-0.29   c0.014-0.187,0.032-0.372,0.053-0.56L8.5,30.336c0.416,0.369,0.971,0.858,1.4,1.212l0.167,0.31   C10.039,32.047,10.016,32.238,9.996,32.425z M4.738,23.412c0.152-1.296,0.465-2.601,0.946-3.894c0.318-0.851,0.7-1.669,1.138-2.449   c0.452,2.018,2.443,4.271,5.919,6.699c-0.518,1.028-0.979,2.077-1.374,3.136c-0.561,1.501-0.954,2.938-1.192,4.281   C7.832,29.331,4.99,26.478,4.738,23.412z M12.736,34.342l-0.213,0.017c-0.499-0.325-1.162-0.766-1.65-1.111l-0.181-0.3   c0.023-0.182,0.05-0.367,0.077-0.558h0.227c0.501,0.345,1.171,0.803,1.68,1.134l0.162,0.277   C12.799,33.982,12.766,34.163,12.736,34.342z M15.826,36.099l-0.246,0.022c-0.565-0.304-1.314-0.709-1.871-1.026l-0.167-0.263   c0.034-0.177,0.07-0.354,0.111-0.536l0.229-0.023c0.57,0.313,1.333,0.728,1.912,1.022l0.175,0.263   C15.919,35.739,15.872,35.921,15.826,36.099z M19.262,37.632l-0.312,0.021c-0.618-0.26-1.438-0.608-2.048-0.886l-0.184-0.228   c0.05-0.173,0.1-0.351,0.155-0.531l0.268-0.055c0.625,0.276,1.458,0.646,2.086,0.903l0.221,0.26   C19.384,37.288,19.323,37.461,19.262,37.632z M22.889,38.887l-0.338,0.031c-0.722-0.213-1.437-0.448-2.14-0.699l-0.221-0.239   c0.066-0.169,0.132-0.337,0.2-0.514l0.327-0.028c0.718,0.256,1.446,0.496,2.185,0.718l0.223,0.228   C23.043,38.556,22.967,38.724,22.889,38.887z M10.884,31.722c0.254-1.34,0.658-2.775,1.221-4.286   c0.402-1.078,0.868-2.147,1.387-3.197c4.583,2.991,9.523,4.792,12.862,5.775c-0.395,1.186-0.808,2.356-1.232,3.497   c-0.585,1.576-1.163,2.991-1.714,4.24C17.507,36.003,13.34,33.506,10.884,31.722z M26.615,39.805l-0.334,0.063   c-0.704-0.145-1.424-0.313-2.159-0.504l-0.18-0.181c0.083-0.164,0.166-0.328,0.249-0.5l0.313-0.076   c0.749,0.195,1.482,0.361,2.199,0.512l0.205,0.178C26.813,39.468,26.715,39.641,26.615,39.805z M30.002,40.268l-0.322,0.087   c-0.59-0.061-1.378-0.146-1.966-0.224l-0.177-0.177c0.098-0.16,0.195-0.323,0.293-0.491l0.348-0.095   c0.678,0.113,1.34,0.199,1.98,0.268l0.171,0.145C30.222,39.944,30.114,40.108,30.002,40.268z M33.051,40.326l-0.314,0.136   c-0.524,0-1.222,0-1.745-0.022l-0.153-0.127c0.114-0.154,0.225-0.317,0.336-0.486l0.318-0.104c0.536,0.004,1.253,0.014,1.79,0   l0.133,0.117C33.295,40.004,33.174,40.167,33.051,40.326z M35.692,39.995l-0.274,0.149c-0.456,0.077-1.063,0.178-1.521,0.23   l-0.111-0.099c0.123-0.159,0.247-0.322,0.368-0.491l0.294-0.132c0.461-0.059,1.074-0.141,1.532-0.223l0.104,0.069   C35.959,39.668,35.826,39.835,35.692,39.995z M38.78,38.52l0.24-0.215c0.275-0.19,0.641-0.449,0.895-0.666l0.009,0.018   c-0.127,0.168-0.258,0.326-0.392,0.484l-0.197,0.21c-0.265,0.21-0.621,0.486-0.902,0.673l-0.039-0.031   C38.525,38.837,38.655,38.678,38.78,38.52z M38.25,38.719l0.063,0.041c-0.133,0.168-0.265,0.331-0.4,0.49l-0.241,0.178   c-0.366,0.15-0.86,0.345-1.236,0.468l-0.067-0.077c0.13-0.155,0.258-0.314,0.383-0.477l0.263-0.164   C37.388,39.045,37.888,38.873,38.25,38.719z M38.596,34.877c-0.562,1.508-1.269,2.861-2.089,4.041   c-4.265,0.903-9.36-0.154-12.019-0.861c0.579-1.246,1.169-2.657,1.754-4.229c0.426-1.145,0.832-2.315,1.213-3.505   c4.741,1.262,8.805,1.675,12.078,1.229C39.309,32.684,38.999,33.797,38.596,34.877z M39.657,30.896L39.44,31.1   c-0.455,0.036-1.063,0.081-1.516,0.095l-0.181-0.16c0.046-0.234,0.087-0.475,0.125-0.722l0.236-0.185   c0.45-0.023,1.052-0.051,1.499-0.096l0.157,0.168C39.729,30.432,39.694,30.663,39.657,30.896z M41.825,30.386l-0.167,0.205   c-0.357,0.114-0.837,0.259-1.205,0.345l-0.139-0.154c0.039-0.231,0.074-0.458,0.103-0.689l0.19-0.219   c0.359-0.077,0.837-0.181,1.188-0.283l0.119,0.111C41.891,29.933,41.859,30.159,41.825,30.386z M43.344,29.559l-0.116,0.232   c-0.247,0.169-0.58,0.387-0.846,0.528l-0.099-0.128c0.032-0.219,0.062-0.437,0.087-0.657l0.141-0.212   c0.256-0.138,0.599-0.326,0.84-0.492l0.073,0.111C43.399,29.146,43.376,29.354,43.344,29.559z M44.186,28.442l-0.063,0.253   c-0.12,0.209-0.284,0.489-0.438,0.675l-0.052-0.071c0.03-0.206,0.057-0.412,0.078-0.616l0.093-0.235   c0.144-0.191,0.331-0.453,0.44-0.669l0.021,0.055C44.243,28.037,44.216,28.238,44.186,28.442z"/>
                        <path d="M21.698,41.901c-7.506-2.161-13.922-6.034-15.603-9.412c0.03,0.124,0.093,0.259,0.168,0.394   c0.008,0.021,0.018,0.042,0.025,0.061c0.041,0.085,0.068,0.141,0.106,0.208l0.068,0.125c0.105,0.224,0.225,0.475,0.346,0.727   c0-0.001-0.001-0.001-0.001-0.002c0.001,0.002,0.002,0.004,0.003,0.007c0.292,0.606,0.592,1.217,0.743,1.468   c0-0.007-0.001-0.013-0.001-0.019c0.461,0.846,1.234,1.853,2.231,2.893l0.452,0.499c1.226,1.246,2.603,2.376,4.093,3.292   c1.454,0.895,2.977,1.616,4.614,2.076l0.876,0.209c1.728,0.539,3.656,0.607,5.458,0.554c0.532-0.015,1.063-0.056,1.592-0.122   c0.587-0.072,1.169-0.178,1.742-0.319c0.384-0.096,0.757-0.229,1.137-0.338l0.025,0.017c0,0,2.753-0.796,3.815-1.499   c-0.018,0.009-0.052,0.024-0.093,0.042c0.147-0.069,0.296-0.139,0.435-0.208C30.347,43.968,24.73,42.753,21.698,41.901z    M32.509,43.097c0.227-0.063,0.504-0.147,0.743-0.231c-0.35,0.148-0.913,0.382-1.515,0.606l0.009-0.021L32.509,43.097z    M30.242,43.446l0.283-0.077c0.357-0.028,0.838-0.069,1.194-0.119l0.011,0.05c-0.161,0.091-0.322,0.173-0.485,0.255l-0.269,0.082   c-0.341,0.041-0.797,0.09-1.139,0.118l-0.054-0.05C29.939,43.622,30.091,43.536,30.242,43.446z M27.844,43.396l0.293-0.056   c0.431,0.024,1.01,0.05,1.443,0.06l0.078,0.059c-0.148,0.091-0.293,0.178-0.442,0.265l-0.28,0.058   c-0.42-0.004-0.981-0.018-1.398-0.041l-0.082-0.081C27.585,43.576,27.714,43.491,27.844,43.396z M25.094,43.037l0.297-0.032   c0.496,0.078,1.156,0.178,1.652,0.236l0.119,0.092c-0.122,0.09-0.245,0.177-0.367,0.263l-0.305,0.05   c-0.475-0.063-1.106-0.15-1.578-0.228l-0.127-0.108C24.888,43.224,24.992,43.133,25.094,43.037z M22.061,42.352l0.259-0.02   c0.631,0.164,1.249,0.309,1.852,0.433l0.15,0.132c-0.095,0.096-0.191,0.187-0.287,0.277l-0.29,0.018   c-0.577-0.118-1.169-0.253-1.773-0.413l-0.144-0.117C21.906,42.56,21.984,42.46,22.061,42.352z M18.857,41.361l0.272-0.009   c0.604,0.214,1.219,0.413,1.841,0.599l0.193,0.149c-0.068,0.11-0.137,0.215-0.205,0.314h-0.279   c-0.595-0.178-1.183-0.372-1.762-0.576l-0.193-0.155C18.768,41.578,18.812,41.475,18.857,41.361z M15.899,40.185l0.205-0.018   c0.527,0.223,1.23,0.518,1.761,0.727l0.202,0.174c-0.036,0.112-0.072,0.222-0.108,0.33l-0.248,0.005   c-0.509-0.204-1.185-0.481-1.689-0.699l-0.168-0.163C15.867,40.426,15.88,40.309,15.899,40.185z M13.361,38.842   c0.479,0.249,1.119,0.571,1.604,0.808l0.173,0.177c-0.01,0.128-0.019,0.25-0.025,0.368l-0.177,0.014   c-0.463-0.232-1.081-0.545-1.537-0.79l-0.17-0.182c-0.012-0.122-0.023-0.244-0.03-0.372L13.361,38.842z M10.949,37.434   c0.416,0.264,0.974,0.604,1.397,0.854l0.172,0.194c0.014,0.132,0.032,0.258,0.05,0.386l-0.137,0.019   c-0.404-0.246-0.942-0.576-1.339-0.835l-0.188-0.209c-0.037-0.137-0.071-0.277-0.103-0.418L10.949,37.434z M8.901,35.95   c0.341,0.263,0.792,0.611,1.143,0.866l0.184,0.228c0.036,0.136,0.073,0.272,0.113,0.407l-0.113,0.006   c-0.332-0.251-0.772-0.586-1.094-0.846l-0.157-0.213c-0.055-0.14-0.107-0.287-0.155-0.437L8.901,35.95z M7.53,34.991   c-0.054-0.114-0.102-0.232-0.151-0.353l-0.048-0.125l0.044-0.004c0.25,0.254,0.586,0.6,0.847,0.84l0.15,0.228   c0.052,0.148,0.109,0.298,0.168,0.444l-0.057,0.013c-0.248-0.239-0.577-0.567-0.813-0.825L7.53,34.991z M7.921,35.631l-0.132-0.159   c0.874,1.013,1.985,1.887,2.688,2.389c0.207,0.581,0.49,1.095,0.804,1.57C9.063,37.438,7.921,35.631,7.921,35.631z M19.501,43.968   c-2.415-0.651-4.459-1.72-6.129-2.886l-0.043-0.028c-0.554-0.39-1.066-0.788-1.536-1.187c-0.317-0.485-0.582-1.03-0.778-1.644   c2.725,1.834,6.101,3.379,9.761,4.459C20.293,43.357,19.869,43.772,19.501,43.968z M20.129,44.128   c0.449-0.173,0.947-0.563,1.489-1.21c3.612,0.959,6.187,1.108,7.931,0.991C25.981,44.817,22.835,44.757,20.129,44.128z"/>
                        <path d="M30.738,24.233c0.147,0.033,12.991,2.809,12.94-3.928l-0.045-0.021c-0.059-0.183-0.121-0.364-0.188-0.544l-0.039-0.252   c0-0.28-0.005-0.655-0.036-0.934c-0.009-0.392-0.139-0.721-0.313-1.028c-0.817-1.85-1.996-3.548-3.486-5.012   c-0.121-0.828-0.806-1.647-1.429-2.242c0,0-0.69-0.726-1.073-0.894c0.037,0.031,0.081,0.072,0.129,0.115   c0.037,0.032,0.069,0.064,0.105,0.096c0.119,0.114,0.253,0.246,0.388,0.386c1.583,1.722,0.384,2.666-1.586,2.818   c-2.223,0.17-4.405-0.438-5.227-0.667c-6.416-1.829-10.439-5.557-8.432-6.803c0.445-0.277,1.101-0.313,1.349-0.326   C23.708,5,23.607,5.005,23.506,5.01l-0.33,0.028l-0.153,0.014c-0.048,0.002-0.096,0.006-0.144,0.008l-0.671,0.077   c-0.963,0.181-2.039,0.68-1.687,2.023c-2.244,0.411-4.387,1.169-6.332,2.233c0.233-1.235,1.109-2.159,2.64-2.834   c-0.239,0.104-0.456,0.201-0.697,0.309c-0.177,0.09-0.353,0.182-0.5,0.267L15.426,7.25c-0.127,0.059-0.25,0.119-0.375,0.181   l0.023-0.027c0.166-0.092,0.368-0.206,0.554-0.304c-0.061,0.03-0.134,0.06-0.191,0.089l-0.359,0.192   c-0.154,0.099-0.256,0.21-0.394,0.313c0.129-0.064,0.255-0.129,0.385-0.191l-0.007,0.035c-0.205,0.19-0.477,0.447-0.658,0.659   l-0.173,0.145c-0.145,0.076-0.29,0.154-0.435,0.234l-0.043-0.031c0.147-0.158,0.33-0.343,0.508-0.514   C8.703,12.878,18.703,21.544,30.738,24.233z M38.394,10.572l-0.003-0.014c0.002,0.002,0.004,0.005,0.005,0.007L38.394,10.572z    M17.083,17.125l-0.26-0.011c-0.356-0.313-0.829-0.734-1.172-1.06l0.016-0.261c0.157-0.164,0.313-0.326,0.47-0.485l0.243-0.018   c0.333,0.311,0.781,0.723,1.125,1.021l0.029,0.276C17.381,16.766,17.232,16.945,17.083,17.125z M19.45,18.835l-0.268,0.044   c-0.437-0.296-1.02-0.692-1.448-1.002l-0.052-0.284c0.143-0.186,0.288-0.37,0.436-0.551l0.281-0.016   c0.416,0.294,0.969,0.684,1.395,0.966l0.049,0.265C19.71,18.448,19.58,18.641,19.45,18.835z M22.16,20.422l-0.272,0.062   c-0.502-0.276-1.169-0.646-1.664-0.936l-0.069-0.271c0.123-0.197,0.247-0.394,0.372-0.589l0.265-0.051   c0.482,0.268,1.127,0.622,1.618,0.877l0.087,0.268C22.386,19.995,22.272,20.208,22.16,20.422z M25.221,21.813l-0.307,0.067   c-0.554-0.237-1.294-0.556-1.844-0.807l-0.12-0.247c0.104-0.217,0.211-0.436,0.318-0.65l0.281-0.094   c0.529,0.238,1.24,0.553,1.775,0.778l0.159,0.28C25.396,21.362,25.31,21.587,25.221,21.813z M28.473,22.946l-0.301,0.093   c-0.655-0.196-1.303-0.409-1.94-0.634l-0.177-0.281c0.079-0.228,0.161-0.455,0.242-0.681l0.295-0.079   c0.616,0.218,1.24,0.423,1.872,0.613l0.194,0.268C28.598,22.477,28.536,22.711,28.473,22.946z M18.635,16.414   c1.78-2.112,3.723-3.964,5.701-5.417c2.227,1.39,4.577,2.236,6.157,2.7C30.128,16,29.572,18.64,28.872,21.41   C23.995,19.964,20.613,17.896,18.635,16.414z M31.817,23.771l-0.269,0.124c-0.638-0.13-1.29-0.282-1.956-0.456l-0.177-0.229   c0.058-0.236,0.11-0.472,0.164-0.706l0.252-0.142c0.64,0.167,1.27,0.313,1.883,0.439l0.209,0.22   C31.889,23.269,31.853,23.52,31.817,23.771z M34.836,24.16l-0.229,0.154c-0.529-0.049-1.236-0.115-1.762-0.178l-0.209-0.243   c0.028-0.241,0.058-0.483,0.081-0.725l0.251-0.164c0.578,0.095,1.143,0.171,1.688,0.228l0.209,0.195   C34.857,23.672,34.848,23.914,34.836,24.16z M37.336,24.386c-0.467,0.003-1.091,0.005-1.559-0.007L35.57,24.19   c0.007-0.246,0.011-0.49,0.011-0.733l0.204-0.164c0.45-0.001,1.05-0.005,1.498-0.024l0.198,0.173   c0.017,0.244,0.029,0.488,0.038,0.733L37.336,24.386z M39.661,24.037c-0.394,0.081-0.917,0.186-1.313,0.245l-0.193-0.164   c-0.014-0.245-0.033-0.488-0.055-0.731l0.158-0.188c0.383-0.056,0.892-0.134,1.269-0.209l0.174,0.117   c0.037,0.241,0.07,0.484,0.102,0.727L39.661,24.037z M41.555,23.329c-0.304,0.146-0.708,0.338-1.021,0.462l-0.174-0.138   c-0.032-0.232-0.066-0.464-0.107-0.695l0.112-0.21c0.299-0.119,0.695-0.278,0.986-0.419L41.5,22.42   c0.051,0.229,0.101,0.456,0.143,0.686L41.555,23.329z M42.867,22.306c-0.205,0.198-0.482,0.458-0.704,0.634l-0.138-0.083   c-0.046-0.217-0.097-0.434-0.148-0.651l0.055-0.255c0.211-0.168,0.491-0.395,0.682-0.586l0.118,0.066   c0.061,0.211,0.12,0.423,0.174,0.634L42.867,22.306z M43.387,20.146c0.063,0.184,0.126,0.368,0.182,0.553l0.014,0.254   c-0.091,0.258-0.218,0.602-0.34,0.845l-0.11-0.083c-0.054-0.201-0.113-0.402-0.175-0.6l0.013-0.244   c0.111-0.225,0.258-0.529,0.337-0.766L43.387,20.146z M43.164,17.979c0.474,2.697-1.714,3.771-3.063,4.172   c-0.557-2.722-1.56-5.348-2.952-7.695c1.574-0.22,2.386-0.804,2.422-1.735C41.111,14.265,42.327,16.048,43.164,17.979z    M38.671,11.939l0.118,0.047c0.136,0.123,0.273,0.247,0.406,0.372l0.09,0.144c-0.026,0.12-0.063,0.278-0.11,0.391l-0.128-0.062   c-0.142-0.144-0.288-0.285-0.433-0.423l-0.096-0.152C38.571,12.163,38.639,12.039,38.671,11.939z M38.359,12.455l0.143,0.072   c0.153,0.149,0.303,0.301,0.451,0.454l0.081,0.159c-0.09,0.088-0.215,0.205-0.318,0.28l-0.154-0.087   c-0.143-0.163-0.289-0.322-0.437-0.48l-0.069-0.15C38.148,12.634,38.276,12.539,38.359,12.455z M37.774,12.832l0.18,0.116   c0.146,0.161,0.289,0.323,0.431,0.489l0.053,0.154c-0.137,0.07-0.317,0.162-0.461,0.218l-0.185-0.132   c-0.136-0.179-0.277-0.356-0.42-0.532L37.331,13C37.465,12.954,37.646,12.89,37.774,12.832z M36.971,13.083l0.168,0.113   c0.145,0.186,0.285,0.372,0.424,0.562l0.021,0.146c-0.176,0.046-0.414,0.105-0.594,0.139l-0.188-0.15   c-0.121-0.195-0.247-0.387-0.376-0.576l-0.027-0.161C36.57,13.136,36.8,13.11,36.971,13.083z M35.284,13.2   c0.199,0.002,0.464,0.003,0.664-0.002l0.185,0.152c0.12,0.192,0.237,0.385,0.354,0.582l0.002,0.162   c-0.223,0.006-0.518,0.012-0.741,0.01l-0.167-0.142c-0.098-0.207-0.199-0.41-0.304-0.612L35.284,13.2z M34.056,13.133   c0.223,0.022,0.519,0.05,0.742,0.065l0.159,0.142c0.098,0.2,0.19,0.405,0.281,0.611l-0.034,0.152   c-0.247-0.01-0.578-0.025-0.827-0.044l-0.165-0.18c-0.066-0.205-0.134-0.408-0.204-0.608L34.056,13.133z M32.697,12.933   c0.243,0.042,0.566,0.097,0.812,0.131l0.145,0.155c0.062,0.199,0.118,0.401,0.175,0.606l-0.068,0.162   c-0.274-0.042-0.642-0.099-0.916-0.149L32.7,13.647c-0.028-0.2-0.057-0.397-0.089-0.594L32.697,12.933z M31.104,12.699l0.107-0.107   c0.302,0.079,0.599,0.147,0.891,0.207l0.127,0.185c0.021,0.193,0.038,0.389,0.054,0.587l-0.114,0.119   c-0.327-0.068-0.664-0.146-1.008-0.236l-0.1-0.189C31.077,13.073,31.091,12.885,31.104,12.699z M31.011,13.843   c0.82,0.218,3.313,0.884,5.803,0.658c1.322,2.379,2.257,5.04,2.755,7.793c-3.603,0.889-8.415-0.261-9.804-0.635   C30.364,18.863,30.792,16.186,31.011,13.843z M29.518,12.223l0.16-0.103c0.29,0.103,0.586,0.2,0.884,0.289l0.1,0.166   c-0.025,0.182-0.052,0.367-0.079,0.554l-0.157,0.118c-0.338-0.101-0.671-0.211-1.001-0.329l-0.085-0.174   C29.398,12.568,29.457,12.395,29.518,12.223z M28.027,11.662l0.176-0.088c0.256,0.104,0.601,0.243,0.859,0.341l0.062,0.162   c-0.067,0.167-0.138,0.337-0.211,0.51l-0.184,0.097c-0.296-0.113-0.686-0.264-0.977-0.384l-0.03-0.165   C27.825,11.975,27.926,11.817,28.027,11.662z M26.822,10.957c0.242,0.115,0.566,0.267,0.814,0.376l0.01,0.15   c-0.112,0.15-0.223,0.301-0.337,0.457l-0.194,0.083c-0.271-0.131-0.635-0.308-0.901-0.445l0.007-0.155   c0.133-0.135,0.268-0.268,0.402-0.399L26.822,10.957z M25.525,10.29c0.227,0.125,0.529,0.288,0.761,0.407l-0.027,0.142   c-0.143,0.125-0.286,0.252-0.429,0.384l-0.216,0.06c-0.25-0.139-0.581-0.327-0.829-0.475l0.029-0.153   c0.166-0.117,0.334-0.23,0.5-0.342L25.525,10.29z M24.333,9.55c0.205,0.132,0.477,0.308,0.686,0.435l-0.05,0.137   c-0.166,0.102-0.334,0.205-0.502,0.312l-0.24,0.03c-0.223-0.147-0.518-0.345-0.736-0.499l0.077-0.132   c0.186-0.093,0.37-0.182,0.556-0.269L24.333,9.55z M23.328,8.79c0.177,0.138,0.413,0.32,0.597,0.451L23.83,9.359   c-0.193,0.081-0.383,0.165-0.577,0.253l-0.211,0.008c-0.188-0.15-0.438-0.353-0.622-0.512l0.075-0.12   c0.207-0.073,0.411-0.144,0.618-0.211L23.328,8.79z M22.501,8.015c0.141,0.138,0.327,0.323,0.473,0.453l-0.089,0.104   c-0.21,0.062-0.421,0.127-0.63,0.197l-0.213-0.017c-0.138-0.152-0.32-0.354-0.447-0.513l0.104-0.107   c0.199-0.05,0.399-0.098,0.599-0.143L22.501,8.015z M21.934,7.236c0.086,0.14,0.202,0.325,0.3,0.457l-0.121,0.093   c-0.202,0.041-0.404,0.085-0.604,0.132l-0.2-0.029c-0.089-0.147-0.207-0.346-0.28-0.501l0.136-0.094   c0.195-0.034,0.391-0.065,0.585-0.094L21.934,7.236z M22.324,5.137l0.147-0.022c0.095-0.006,0.193-0.01,0.289-0.013l-0.012,0.013   c-0.136,0.043-0.32,0.102-0.452,0.162l-0.132,0.027c-0.113,0.004-0.227,0.009-0.34,0.016l-0.034-0.021   C21.947,5.245,22.16,5.177,22.324,5.137z M21.486,5.452l0.127-0.035c0.127-0.008,0.252-0.014,0.379-0.019l0.051,0.027   c-0.078,0.072-0.182,0.172-0.246,0.259l-0.136,0.042c-0.146,0.005-0.288,0.015-0.432,0.024L21.157,5.72   C21.252,5.635,21.379,5.522,21.486,5.452z M20.989,5.944l0.132-0.053c0.157-0.012,0.311-0.022,0.467-0.03l0.088,0.037   c-0.021,0.1-0.047,0.236-0.047,0.339l-0.146,0.058c-0.172,0.014-0.342,0.028-0.513,0.047l-0.136-0.034   C20.874,6.195,20.93,6.046,20.989,5.944z M20.962,6.519c0.172-0.021,0.345-0.039,0.518-0.054l0.154,0.038   c0.037,0.125,0.089,0.294,0.141,0.415l-0.149,0.068c-0.184,0.025-0.37,0.051-0.555,0.08l-0.172-0.027   c-0.027-0.134-0.064-0.314-0.073-0.451L20.962,6.519z M20.59,7.403c0.544,1.311,2.125,2.558,3.355,3.374   c-2.048,1.377-4.05,3.153-5.875,5.196c-1.5-1.233-4.005-3.676-3.917-6.165C16.128,8.683,18.308,7.866,20.59,7.403z M13.395,9.089   l0.157-0.161c0.152-0.088,0.306-0.173,0.463-0.255l0.061,0.037c-0.104,0.245-0.235,0.576-0.304,0.833l-0.152,0.175   c-0.163,0.097-0.326,0.195-0.488,0.296L13.04,9.983C13.136,9.71,13.265,9.347,13.395,9.089z M13.031,11.676   c-0.036-0.3-0.082-0.701-0.086-1.003l0.13-0.208c0.161-0.104,0.322-0.207,0.485-0.307l0.134,0.036   c0.011,0.291,0.031,0.679,0.075,0.965l-0.1,0.213c-0.159,0.111-0.318,0.223-0.475,0.336L13.031,11.676z M13.685,13.471   c-0.146-0.317-0.336-0.74-0.456-1.068l0.08-0.229c0.16-0.123,0.327-0.243,0.492-0.363l0.179,0.034   c0.134,0.302,0.318,0.704,0.475,0.994l-0.07,0.25c-0.168,0.137-0.333,0.273-0.497,0.412L13.685,13.471z M14.981,15.317   c-0.254-0.327-0.593-0.762-0.831-1.102l0.027-0.246c0.161-0.143,0.323-0.284,0.488-0.422l0.237,0.008   c0.238,0.317,0.561,0.739,0.815,1.044l-0.016,0.226c-0.163,0.156-0.325,0.314-0.481,0.474L14.981,15.317z"/>
                    </g>
                </g>
            </svg>
        </g>
        <g opacity="1" transform="rotate(0 250.9539 161.5273)">
            <svg width="362.8845" height="60" x="250.9539" y="161.5273" version="1.1" preserveAspectRatio="none" viewBox="4.8 -28 229.83999999999997 38">
                <g transform="matrix(1 0 0 1 0 0)" class="companyNamec88724c7-627c-4b1d-9221-100a278afa08">
                    <path id="id-c88724c7-627c-4b1d-9221-100a278afa08D6z1nYkh11" d="M22.88-28L4.80-28L4.80 0L22.88 0L22.88-2.20L8.44-2.20L8.44-13.92L20.84-13.92L20.84-15.76L8.44-15.76L8.44-25.80L22.88-25.80L22.88-28Z M27.68 0L33.92-8.28L40.04 0L44.12 0L35.96-10.96L42.68-20L40.36-20L34.80-12.52L29.32-20L25.28-20L32.76-9.84L25.32 0L27.68 0Z M48.52-20L48.52 10L51.92 10L51.92-3.28L52.08-3.28Q52.48-2.24 53.14-1.52Q53.80-0.80 54.64-0.36Q55.48 0.08 56.42 0.28Q57.36 0.48 58.32 0.48L58.32 0.48Q60.32 0.48 62.00-0.26Q63.68-1 64.90-2.36Q66.12-3.72 66.80-5.66Q67.48-7.60 67.48-9.96L67.48-9.96Q67.48-12.36 66.80-14.28Q66.12-16.20 64.90-17.58Q63.68-18.96 62.00-19.70Q60.32-20.44 58.32-20.44L58.32-20.44Q53.56-20.44 52.08-16.76L52.08-16.76L51.92-16.76L51.92-20L48.52-20ZM51.92-8.52L51.92-12Q51.92-13.32 52.34-14.50Q52.76-15.68 53.52-16.54Q54.28-17.40 55.30-17.90Q56.32-18.40 57.48-18.40L57.48-18.40Q58.72-18.40 59.86-17.94Q61.00-17.48 61.84-16.48Q62.68-15.48 63.18-13.88Q63.68-12.28 63.68-10.04L63.68-10.04Q63.68-7.76 63.18-6.16Q62.68-4.56 61.82-3.54Q60.96-2.52 59.84-2.06Q58.72-1.60 57.48-1.60L57.48-1.60Q56.36-1.60 55.36-2.06Q54.36-2.52 53.60-3.42Q52.84-4.32 52.38-5.60Q51.92-6.88 51.92-8.52L51.92-8.52Z M80.04-20.44L80.04-20.44Q82.96-20.44 84.56-19.62Q86.16-18.80 86.90-17.48Q87.64-16.16 87.76-14.44Q87.88-12.72 87.88-10.92L87.88-10.92L87.88 0L84.64 0L84.64-1.96Q83.48-0.84 81.68-0.18Q79.88 0.48 78.08 0.48L78.08 0.48Q76.36 0.48 75.04-0.12Q73.72-0.72 72.84-1.68Q71.96-2.64 71.52-3.84Q71.08-5.04 71.08-6.28L71.08-6.28Q71.08-7.56 71.56-8.84Q72.04-10.12 73-11.14Q73.96-12.16 75.36-12.80Q76.76-13.44 78.56-13.44L78.56-13.44Q80.36-13.44 81.98-12.74Q83.60-12.04 84.64-10.76L84.64-10.76L84.64-12.48Q84.64-15.76 83.66-17.36Q82.68-18.96 80.08-18.96L80.08-18.96Q78.96-18.96 78.12-18.68Q77.28-18.40 76.62-17.90Q75.96-17.40 75.40-16.66Q74.84-15.92 74.28-15L74.28-15L72.20-17.08Q72.76-17.68 73.38-18.28Q74-18.88 74.90-19.36Q75.80-19.84 77.04-20.14Q78.28-20.44 80.04-20.44ZM84.64-4.84L84.64-7.92Q84.44-8.40 84.06-9.04Q83.68-9.68 83.08-10.28Q82.48-10.88 81.64-11.30Q80.80-11.72 79.64-11.72L79.64-11.72Q78.48-11.72 77.52-11.26Q76.56-10.80 75.90-10.06Q75.24-9.32 74.88-8.32Q74.52-7.32 74.52-6.24L74.52-6.24Q74.52-4.96 74.98-4.02Q75.44-3.08 76.16-2.42Q76.88-1.76 77.76-1.44Q78.64-1.12 79.44-1.12L79.44-1.12Q80.20-1.12 80.98-1.40Q81.76-1.68 82.46-2.18Q83.16-2.68 83.72-3.36Q84.28-4.04 84.64-4.84L84.64-4.84Z M95.76-18.40L92.28-18.40L92.28-20L95.76-20L95.76-26.16L99.16-26.16L99.16-20L104.00-20L104.00-18.40L99.16-18.40L99.16-5.12Q99.16-4.64 99.20-4.02Q99.24-3.40 99.44-2.86Q99.64-2.32 100.06-1.96Q100.48-1.60 101.24-1.60L101.24-1.60Q102.20-1.60 102.84-2.32Q103.48-3.04 103.88-3.88L103.88-3.88L105.76-1.96Q103.80 0 101.32 0L101.32 0Q100.28 0 99.28-0.36Q98.28-0.72 97.50-1.46Q96.72-2.20 96.24-3.36Q95.76-4.52 95.76-6.08L95.76-6.08L95.76-18.40Z M117.60 0L121.24 0L121.24-25.80L131.96-25.80L131.96-28L106.88-28L106.88-25.80L117.60-25.80L117.60 0Z M136.52-20.44L136.52-20.44Q139.44-20.44 141.04-19.62Q142.64-18.80 143.38-17.48Q144.12-16.16 144.24-14.44Q144.36-12.72 144.36-10.92L144.36-10.92L144.36 0L141.12 0L141.12-1.96Q139.96-0.84 138.16-0.18Q136.36 0.48 134.56 0.48L134.56 0.48Q132.84 0.48 131.52-0.12Q130.20-0.72 129.32-1.68Q128.44-2.64 128.00-3.84Q127.56-5.04 127.56-6.28L127.56-6.28Q127.56-7.56 128.04-8.84Q128.52-10.12 129.48-11.14Q130.44-12.16 131.84-12.80Q133.24-13.44 135.04-13.44L135.04-13.44Q136.84-13.44 138.46-12.74Q140.08-12.04 141.12-10.76L141.12-10.76L141.12-12.48Q141.12-15.76 140.14-17.36Q139.16-18.96 136.56-18.96L136.56-18.96Q135.44-18.96 134.60-18.68Q133.76-18.40 133.10-17.90Q132.44-17.40 131.88-16.66Q131.32-15.92 130.76-15L130.76-15L128.68-17.08Q129.24-17.68 129.86-18.28Q130.48-18.88 131.38-19.36Q132.28-19.84 133.52-20.14Q134.76-20.44 136.52-20.44ZM141.12-4.84L141.12-7.92Q140.92-8.40 140.54-9.04Q140.16-9.68 139.56-10.28Q138.96-10.88 138.12-11.30Q137.28-11.72 136.12-11.72L136.12-11.72Q134.96-11.72 134.00-11.26Q133.04-10.80 132.38-10.06Q131.72-9.32 131.36-8.32Q131.00-7.32 131.00-6.24L131.00-6.24Q131.00-4.96 131.46-4.02Q131.92-3.08 132.64-2.42Q133.36-1.76 134.24-1.44Q135.12-1.12 135.92-1.12L135.92-1.12Q136.68-1.12 137.46-1.40Q138.24-1.68 138.94-2.18Q139.64-2.68 140.20-3.36Q140.76-4.04 141.12-4.84L141.12-4.84Z M151.16 0L157.40-8.28L163.52 0L167.60 0L159.44-10.96L166.16-20L163.84-20L158.28-12.52L152.80-20L148.76-20L156.24-9.84L148.80 0L151.16 0Z M173.60-28L173.60 0L183.64 0Q186.32 0 188.16-0.70Q190.00-1.40 191.12-2.52Q192.24-3.64 192.74-5.06Q193.24-6.48 193.24-7.92L193.24-7.92Q193.24-10.20 192.26-11.56Q191.28-12.92 189.92-13.64Q188.56-14.36 187.12-14.60Q185.68-14.84 184.80-14.88L184.80-14.88L184.80-15.04Q186.20-15.04 187.44-15.58Q188.68-16.12 189.62-16.98Q190.56-17.84 191.12-18.98Q191.68-20.12 191.68-21.40L191.68-21.40Q191.68-22.52 191.20-23.68Q190.72-24.84 189.74-25.80Q188.76-26.76 187.22-27.38Q185.68-28 183.60-28L183.60-28L173.60-28ZM183.04-1.76L177.24-1.76L177.24-14L181.64-14Q183.60-14 185.04-13.48Q186.48-12.96 187.42-12.08Q188.36-11.20 188.82-10.04Q189.28-8.88 189.28-7.60L189.28-7.60Q189.28-6.20 188.78-5.12Q188.28-4.04 187.44-3.28Q186.60-2.52 185.46-2.14Q184.32-1.76 183.04-1.76L183.04-1.76ZM182.04-15.76L177.24-15.76L177.24-26.24L182.12-26.24Q183.68-26.24 184.78-25.80Q185.88-25.36 186.58-24.64Q187.28-23.92 187.60-23Q187.92-22.08 187.92-21.16L187.92-21.16Q187.92-20 187.46-19Q187.00-18 186.18-17.28Q185.36-16.56 184.30-16.16Q183.24-15.76 182.04-15.76L182.04-15.76Z M217.96-9.96L217.96-9.96Q217.96-7.88 217.24-5.98Q216.52-4.08 215.18-2.64Q213.84-1.20 211.94-0.36Q210.04 0.48 207.68 0.48L207.68 0.48Q205.28 0.48 203.34-0.38Q201.40-1.24 200.06-2.68Q198.72-4.12 197.98-6.02Q197.24-7.92 197.24-9.96L197.24-9.96Q197.24-12.04 197.98-13.94Q198.72-15.84 200.06-17.28Q201.40-18.72 203.34-19.58Q205.28-20.44 207.68-20.44L207.68-20.44Q210.04-20.44 211.94-19.58Q213.84-18.72 215.18-17.28Q216.52-15.84 217.24-13.94Q217.96-12.04 217.96-9.96ZM214.16-9.96L214.16-9.96Q214.16-12.76 213.56-14.50Q212.96-16.24 212.00-17.20Q211.04-18.16 209.88-18.50Q208.72-18.84 207.64-18.84L207.64-18.84Q206.56-18.84 205.40-18.50Q204.24-18.16 203.26-17.20Q202.28-16.24 201.66-14.50Q201.04-12.76 201.04-9.96L201.04-9.96Q201.04-7.20 201.66-5.46Q202.28-3.72 203.26-2.76Q204.24-1.80 205.40-1.46Q206.56-1.12 207.64-1.12L207.64-1.12Q208.72-1.12 209.88-1.46Q211.04-1.80 212.00-2.76Q212.96-3.72 213.56-5.46Q214.16-7.20 214.16-9.96Z M224.64-18.40L221.16-18.40L221.16-20L224.64-20L224.64-26.16L228.04-26.16L228.04-20L232.88-20L232.88-18.40L228.04-18.40L228.04-5.12Q228.04-4.64 228.08-4.02Q228.12-3.40 228.32-2.86Q228.52-2.32 228.94-1.96Q229.36-1.60 230.12-1.60L230.12-1.60Q231.08-1.60 231.72-2.32Q232.36-3.04 232.76-3.88L232.76-3.88L234.64-1.96Q232.68 0 230.20 0L230.20 0Q229.16 0 228.16-0.36Q227.16-0.72 226.38-1.46Q225.60-2.20 225.12-3.36Q224.64-4.52 224.64-6.08L224.64-6.08L224.64-18.40Z"/>
                </g>
            </svg>
        </g>
        <g opacity="1" transform="rotate(0 230.9539 146.5273)">
            <svg width="2" height="90" x="230.9539" y="146.5273" version="1.1" preserveAspectRatio="none" viewBox="0 0 2 90">
                <defs>
                    <rect x="0" y="0" width="2" height="90" rx="0px" ry="0px" id="id-c88724c7-627c-4b1d-9221-100a278afa08tBXipXk0b1767112999421"/>
                </defs>
                <use class="companyNamec88724c7-627c-4b1d-9221-100a278afa08 shapeStroke-strc88724c7-627c-4b1d-9221-100a278afa08" style="stroke-width:0;" xlink:href="#id-c88724c7-627c-4b1d-9221-100a278afa08tBXipXk0b1767112999421"/>
            </svg>
        </g>
    </svg>
</svg>